<svg width="122" height="19" viewBox="0 0 122 19" fill="none" xmlns="http://www.w3.org/2000/svg">
<g clip-path="url(#clip0_188_243)">
<path d="M3.47265 13.3966C3.47265 14.3627 3.47265 15.2644 3.47265 16.2305C3.47265 16.5526 3.40713 16.6814 3.07953 16.617C2.42432 16.617 1.83463 16.617 1.17942 16.617C0.524212 16.617 0.0655651 16.2305 0.0655651 15.5865C0.0655651 13.7831 -0.0654768 11.9153 0.0655651 10.1119C0.458691 5.08815 4.06234 1.22374 8.51777 0.0644184C8.71433 1.15875e-05 8.91089 1.15875e-05 9.10746 0.0644184C13.5629 1.41696 16.3148 4.37967 17.3631 8.82374C17.4941 9.53222 17.5597 10.2407 17.5597 10.9492C17.5597 12.4305 17.5597 13.9119 17.5597 15.3932C17.5597 16.1661 17.1665 16.6814 16.2492 16.617C15.7251 16.5526 15.1354 16.617 14.6112 16.617C14.2836 16.617 14.1526 16.4881 14.1526 16.1661C14.1526 14.4915 14.1526 12.817 14.1526 11.078C14.1526 9.21018 13.5629 7.4712 12.318 5.98984C11.5317 4.95933 10.4834 4.12205 9.17298 3.6712C8.97641 3.60679 8.64881 3.60679 8.45225 3.6712C5.63485 4.95933 3.9313 7.08476 3.53818 10.1119C3.40713 11.2068 3.53818 12.3017 3.53818 13.3966H3.47265Z" fill="white"/>
<path d="M119.707 6.56953H111.713V9.40343C111.844 9.40343 112.041 9.40343 112.172 9.40343C114.596 9.40343 117.02 9.40343 119.444 9.40343C120.231 9.40343 120.951 9.66105 121.41 10.2407C121.672 10.6272 121.934 11.1424 122 11.5933C122.065 12.6238 122.065 13.5899 121.934 14.6204C121.803 15.8441 120.82 16.617 119.576 16.617C117.02 16.617 114.399 16.617 111.844 16.617C110.534 16.617 109.485 15.5865 109.485 14.2339C109.485 13.2034 109.354 13.3966 110.337 13.3966C110.665 13.3966 110.992 13.3966 111.385 13.3966C111.647 13.3966 111.779 13.5255 111.779 13.7831C111.779 13.9763 111.779 14.2339 111.779 14.4916H119.772V11.5933H119.248C116.889 11.5933 114.596 11.5933 112.237 11.5933C110.468 11.5933 109.485 10.6272 109.551 8.88817C109.551 8.05089 109.551 7.14919 109.616 6.3119C109.747 5.15258 110.73 4.3797 111.91 4.3797C114.465 4.3797 117.02 4.31529 119.576 4.3797C121.41 4.44411 122.196 5.73224 122.065 7.40682C122.065 7.47122 121.869 7.60004 121.803 7.60004C121.214 7.60004 120.689 7.60004 120.1 7.60004C119.838 7.60004 119.772 7.47122 119.772 7.278C119.707 7.08478 119.707 6.82716 119.707 6.56953Z" fill="white"/>
<path d="M48.5509 12.5593C49.1406 13.2677 49.7303 13.9118 50.32 14.6203C50.7131 15.0711 51.1062 15.522 51.4994 16.0372C51.6304 16.166 51.6304 16.4237 51.6304 16.5525C51.6304 16.6169 51.3683 16.6813 51.1718 16.6813C50.6476 16.6813 50.0579 16.6813 49.5337 16.6813C49.3372 16.6813 49.0751 16.5525 48.944 16.4237C47.8957 15.2643 46.8474 14.0406 45.8646 12.8169C45.6025 12.4948 45.3404 12.4304 44.9473 12.4304C43.7024 12.4304 42.523 12.4304 41.2126 12.4304C41.2126 12.6237 41.2126 12.7525 41.2126 12.8813C41.2126 13.9762 41.2126 15.1355 41.2126 16.2304C41.2126 16.5525 41.1471 16.6813 40.8194 16.6169C40.3608 16.6169 39.8366 16.6169 39.378 16.6169C39.1159 16.6169 38.9849 16.5525 38.9849 16.2948C38.9849 12.4304 38.9849 8.56603 38.9849 4.63722C38.9849 4.37959 39.0504 4.31519 39.3125 4.31519C42.5885 4.31519 45.9301 4.31519 49.2061 4.31519C50.5821 4.31519 51.6304 5.4101 51.6304 6.76264C51.6304 7.79315 51.6304 8.82366 51.6304 9.85417C51.6304 11.3355 50.5821 12.366 49.0751 12.366C48.8785 12.366 48.7475 12.366 48.5509 12.366C48.5509 12.4948 48.5509 12.4948 48.5509 12.5593ZM49.3372 6.56942H41.2126V10.2406H49.2717V6.56942H49.3372Z" fill="white"/>
<path d="M76.4629 12.5593C77.0526 13.2678 77.6423 13.9118 78.232 14.6203C78.6251 15.0712 79.0183 15.522 79.4114 16.0373C79.5424 16.1661 79.4769 16.4237 79.5424 16.6169C79.4114 16.6813 79.2148 16.6813 79.0838 16.6813C78.5596 16.6813 77.9699 16.6813 77.4458 16.6813C77.2492 16.6813 77.0526 16.5525 76.9216 16.4237C75.8733 15.2644 74.8904 14.0407 73.8421 12.8813C73.58 12.5593 73.3179 12.4305 72.8593 12.4305C71.6144 12.4305 70.435 12.4305 69.1901 12.4305C69.1901 12.6237 69.1901 12.7525 69.1901 12.8813C69.1901 13.9762 69.1901 15.1356 69.1901 16.2305C69.1901 16.5525 69.0591 16.6813 68.7315 16.6813C68.2728 16.6813 67.8797 16.6813 67.4211 16.6813C67.0279 16.6813 66.9624 16.5525 66.9624 16.2305C66.9624 12.9457 66.9624 9.66099 66.9624 6.37625C66.9624 5.86099 66.9624 5.28133 66.9624 4.76608C66.9624 4.50845 67.0279 4.37964 67.3555 4.37964C70.6316 4.37964 73.9076 4.37964 77.1837 4.37964C78.5596 4.37964 79.6079 5.47455 79.6079 6.8271C79.6079 7.8576 79.6079 8.88811 79.6079 9.91862C79.6079 11.3356 78.4941 12.3661 77.0526 12.4305C76.8561 12.4305 76.725 12.4305 76.5285 12.4305C76.4629 12.4949 76.4629 12.4949 76.4629 12.5593ZM69.1246 10.2407H77.1837V6.56947H69.1246V10.2407Z" fill="white"/>
<path d="M34.7262 12.5593H26.6672C26.6672 12.6881 26.6672 12.8813 26.6672 13.0101C26.6672 14.1051 26.6672 15.2 26.6672 16.2305C26.6672 16.5525 26.6016 16.6813 26.2085 16.6813C25.7499 16.6813 25.2257 16.6813 24.7671 16.6813C24.505 16.6813 24.4395 16.5525 24.4395 16.3593C24.4395 13.139 24.4395 9.98303 24.4395 6.76269C24.4395 5.34574 25.5533 4.37964 26.9292 4.37964C29.419 4.37964 31.9744 4.37964 34.4642 4.37964C35.9711 4.37964 37.085 5.41015 37.085 6.8915C37.085 9.98303 37.085 13.0746 37.085 16.1661C37.085 16.5525 36.954 16.6813 36.5608 16.6813C36.1022 16.6169 35.6435 16.6813 35.1849 16.6813C34.8573 16.6813 34.7262 16.6169 34.7262 16.2305C34.7262 15.1356 34.7262 14.1051 34.7262 13.0101V12.5593ZM34.7262 6.56947H26.6672V10.3051H34.7262V6.56947Z" fill="white"/>
<path d="M83.8014 6.56942V9.46773H84.2601C86.4223 9.46773 88.5845 9.46773 90.7467 9.46773C91.1398 9.46773 91.2708 9.59654 91.2053 9.91858C91.2053 10.305 91.2053 10.7559 91.2053 11.1423C91.2053 11.5287 91.1398 11.5932 90.7467 11.5932C88.5845 11.5932 86.4223 11.5932 84.3256 11.5932H83.8014V14.4915H84.3256C87.0775 14.4915 89.8294 14.4915 92.5813 14.4915C92.9744 14.4915 93.1054 14.6203 93.1054 15.0067C93.1054 15.3932 93.1054 15.844 93.1054 16.2304C93.1054 16.5525 92.9744 16.6813 92.6468 16.6813C90.6811 16.6813 88.7155 16.6813 86.8154 16.6813C85.2429 16.6813 83.6049 16.6813 82.0324 16.6813C81.7048 16.6813 81.5737 16.6169 81.5737 16.2304C81.5737 12.4304 81.5737 8.56603 81.5737 4.76603C81.5737 4.444 81.6392 4.31519 82.0324 4.31519C85.636 4.31519 89.1742 4.31519 92.7778 4.31519C93.1054 4.31519 93.2365 4.37959 93.1709 4.70163C93.1709 5.15247 93.1709 5.53891 93.1709 5.98976C93.1709 6.3762 93.1054 6.50502 92.6468 6.50502C89.8949 6.50502 87.2085 6.50502 84.4566 6.50502H83.8014V6.56942Z" fill="white"/>
<path d="M97.1022 14.4915H105.227V13.9762C105.227 10.9491 105.227 7.922 105.227 4.89489C105.227 4.50844 105.292 4.37963 105.685 4.44404C106.144 4.44404 106.603 4.44404 107.061 4.44404C107.455 4.44404 107.52 4.57285 107.52 4.89489C107.52 7.98641 107.52 11.1423 107.52 14.2339C107.52 14.5559 107.455 14.9423 107.323 15.2644C106.93 16.2305 106.079 16.6813 105.03 16.7457C102.475 16.7457 99.8541 16.7457 97.2988 16.7457C95.9228 16.7457 94.8745 15.7152 94.8745 14.3627C94.8745 11.2067 94.8745 7.98641 94.8745 4.83048C94.8745 4.57285 95.0055 4.44404 95.2676 4.44404C95.7263 4.44404 96.1849 4.44404 96.6436 4.44404C96.9712 4.44404 97.1022 4.57285 97.1022 4.89489C97.1022 7.40675 97.1022 9.91861 97.1022 12.4305V14.4915Z" fill="white"/>
<path d="M60.4103 6.56947V7.08472C60.4103 10.1118 60.4103 13.139 60.4103 16.1661C60.4103 16.5525 60.3448 16.6813 59.8861 16.6813C59.4275 16.6169 59.0344 16.6169 58.5757 16.6813C58.1171 16.7457 58.0515 16.5525 58.0515 16.1661C58.0515 13.139 58.0515 10.1762 58.0515 7.14913V6.56947H57.5274C56.1514 6.56947 54.7755 6.56947 53.3996 6.56947C53.072 6.56947 52.9409 6.50506 52.9409 6.11862C52.9409 5.66777 52.9409 5.21693 52.9409 4.76608C52.9409 4.50845 53.0064 4.37964 53.334 4.37964C57.2653 4.37964 61.1966 4.37964 65.0623 4.37964C65.3244 4.37964 65.4554 4.44405 65.4554 4.76608C65.4554 5.21693 65.4554 5.73218 65.4554 6.18303C65.4554 6.50506 65.3244 6.56947 64.9968 6.56947C63.6208 6.56947 62.2449 6.56947 60.869 6.56947H60.4103Z" fill="white"/>
<path d="M6.48682 16.6812C6.48682 15.3931 7.53515 14.427 8.84557 14.427C10.0905 14.427 11.1388 15.5219 11.1388 16.7456C11.1388 17.9694 10.0249 19.0643 8.78005 19.0643C7.53515 18.9999 6.48682 17.9694 6.48682 16.6812Z" fill="white"/>
</g>
<defs>
<clipPath id="clip0_188_243">
<rect width="122" height="19" fill="white"/>
</clipPath>
</defs>
</svg>
